<svg width="13" height="14" viewBox="0 0 13 14" fill="none" xmlns="http://www.w3.org/2000/svg">
<path d="M7.48178 6.99968C7.48178 7.61742 6.98094 8.11825 6.3632 8.11825C5.74546 8.11825 5.24463 7.61742 5.24463 6.99968C5.24463 6.38194 5.74546 5.8811 6.3632 5.8811C6.98094 5.8811 7.48178 6.38194 7.48178 6.99968Z" fill="white"/>
<path d="M8.25263 3.61902H4.47434C3.65192 3.61902 2.98291 4.28803 2.98291 5.11045V8.88874C2.98291 9.71116 3.65192 10.3802 4.47434 10.3802H8.25263C9.07506 10.3802 9.74406 9.71116 9.74406 8.88874V5.11045C9.74406 4.28803 9.07506 3.61902 8.25263 3.61902ZM6.36349 8.86388C5.33551 8.86388 4.4992 8.02758 4.4992 6.9996C4.4992 5.97161 5.33551 5.13531 6.36349 5.13531C7.39147 5.13531 8.22778 5.97161 8.22778 6.9996C8.22778 8.02758 7.39147 8.86388 6.36349 8.86388ZM8.5012 5.23474C8.29526 5.23474 8.12835 5.06782 8.12835 4.86188C8.12835 4.65593 8.29526 4.48902 8.5012 4.48902C8.70715 4.48902 8.87406 4.65593 8.87406 4.86188C8.87406 5.06782 8.70715 5.23474 8.5012 5.23474Z" fill="white"/>
<path d="M9.37116 0.63623H3.35572C1.50541 0.63623 0 2.14164 0 3.99195V10.0074C0 11.8577 1.50541 13.3631 3.35572 13.3631H9.37116C11.2215 13.3631 12.7269 11.8577 12.7269 10.0074V3.99195C12.7269 2.14164 11.2215 0.63623 9.37116 0.63623ZM10.4897 8.88881C10.4897 10.1224 9.48612 11.126 8.25258 11.126H4.47429C3.24076 11.126 2.23715 10.1224 2.23715 8.88881V5.11052C2.23715 3.87699 3.24076 2.87338 4.47429 2.87338H8.25258C9.48612 2.87338 10.4897 3.87699 10.4897 5.11052V8.88881Z" fill="white"/>
</svg>
