<svg width="20" height="20" viewBox="0 0 20 20" fill="none" xmlns="http://www.w3.org/2000/svg">
<path d="M11.7572 9.99896C11.7572 10.9697 10.9702 11.7567 9.99945 11.7567C9.02872 11.7567 8.2417 10.9697 8.2417 9.99896C8.2417 9.02823 9.02872 8.24121 9.99945 8.24121C10.9702 8.24121 11.7572 9.02823 11.7572 9.99896Z" fill="url(#paint0_linear_6_1068)"/>
<path d="M12.9689 4.68701H7.03165C5.73928 4.68701 4.68799 5.7383 4.68799 7.03067V12.968C4.68799 14.2603 5.73928 15.3116 7.03165 15.3116H12.9689C14.2613 15.3116 15.3126 14.2603 15.3126 12.968V7.03067C15.3126 5.7383 14.2613 4.68701 12.9689 4.68701ZM10.0003 12.9289C8.3849 12.9289 7.07071 11.6147 7.07071 9.99931C7.07071 8.38393 8.3849 7.06974 10.0003 7.06974C11.6157 7.06974 12.9299 8.38393 12.9299 9.99931C12.9299 11.6147 11.6157 12.9289 10.0003 12.9289ZM13.3595 7.22598C13.0359 7.22598 12.7736 6.96369 12.7736 6.64006C12.7736 6.31644 13.0359 6.05415 13.3595 6.05415C13.6832 6.05415 13.9455 6.31644 13.9455 6.64006C13.9455 6.96369 13.6832 7.22598 13.3595 7.22598Z" fill="url(#paint1_linear_6_1068)"/>
<path d="M14.726 0H5.27324C2.36563 0 0 2.36563 0 5.27324V14.726C0 17.6336 2.36563 19.9993 5.27324 19.9993H14.726C17.6336 19.9993 19.9993 17.6336 19.9993 14.726V5.27324C19.9993 2.36563 17.6336 0 14.726 0ZM16.4838 12.9683C16.4838 14.9067 14.9067 16.4838 12.9683 16.4838H7.03099C5.09258 16.4838 3.51549 14.9067 3.51549 12.9683V7.03099C3.51549 5.09258 5.09258 3.51549 7.03099 3.51549H12.9683C14.9067 3.51549 16.4838 5.09258 16.4838 7.03099V12.9683Z" fill="url(#paint2_linear_6_1068)"/>
<defs>
<linearGradient id="paint0_linear_6_1068" x1="8.36047" y1="8.24121" x2="11.7572" y2="8.24121" gradientUnits="userSpaceOnUse">
<stop stop-color="#058B8C"/>
<stop offset="1" stop-color="#058B8C"/>
</linearGradient>
<linearGradient id="paint1_linear_6_1068" x1="5.04693" y1="4.68701" x2="15.3126" y2="4.68701" gradientUnits="userSpaceOnUse">
<stop stop-color="#058B8C"/>
<stop offset="1" stop-color="#058B8C"/>
</linearGradient>
<linearGradient id="paint2_linear_6_1068" x1="0.67565" y1="0" x2="19.9993" y2="0" gradientUnits="userSpaceOnUse">
<stop stop-color="#058B8C"/>
<stop offset="1" stop-color="#058B8C"/>
</linearGradient>
</defs>
</svg>
