<svg width="362" height="301" viewBox="0 0 362 301" fill="none" xmlns="http://www.w3.org/2000/svg">
<path d="M150.426 -4.97715e-06C67.3479 -2.22835e-06 3.88915e-06 67.3478 8.68666e-06 150.426C1.34842e-05 233.504 67.3479 300.851 150.426 300.851L294 300.851C331.555 300.851 362 270.407 362 232.851L362 168.133C362 75.2754 286.724 -9.48688e-06 193.867 -6.4145e-06L150.426 -4.97715e-06Z" fill="white"/>
<circle cx="180.693" cy="155.929" r="132.693" fill="url(#paint0_linear_138_129)"/>
<circle cx="165.02" cy="144.436" r="85.6755" fill="url(#paint1_linear_138_129)"/>
<path d="M162.586 138.103V133.375L159.208 135.739L162.586 138.103Z" fill="white"/>
<path d="M186.539 99.0608H144.621V152.956H186.539V99.0608ZM179.054 114.032C179.054 114.858 178.384 115.529 177.557 115.529H170.071C169.245 115.529 168.574 114.859 168.574 114.032C168.574 113.205 169.244 112.534 170.071 112.534H177.557C178.384 112.534 179.054 113.205 179.054 114.032ZM147.615 103.552C147.615 102.725 148.285 102.055 149.112 102.055H170.071C170.898 102.055 171.569 102.725 171.569 103.552V108.043C171.569 108.87 170.898 109.54 170.071 109.54H149.112C148.286 109.54 147.615 108.87 147.615 108.043V103.552ZM147.615 114.032C147.623 113.982 147.633 113.932 147.645 113.883C147.664 113.682 147.725 113.487 147.825 113.312C147.843 113.265 147.863 113.218 147.886 113.173C147.911 113.137 147.949 113.119 147.977 113.086C148.234 112.788 148.595 112.6 148.986 112.56C149.03 112.556 149.067 112.535 149.112 112.535H164.083C164.128 112.535 164.165 112.556 164.209 112.56C164.309 112.57 164.408 112.59 164.504 112.62C164.781 112.705 165.029 112.866 165.218 113.086C165.245 113.119 165.284 113.138 165.31 113.174C165.332 113.219 165.352 113.265 165.37 113.312C165.47 113.488 165.531 113.682 165.55 113.883C165.563 113.932 165.573 113.982 165.58 114.032V124.511C165.573 124.562 165.563 124.611 165.55 124.66C165.531 124.861 165.47 125.056 165.37 125.231C165.352 125.279 165.332 125.325 165.31 125.37C165.288 125.4 165.253 125.411 165.23 125.439C164.954 125.793 164.532 126.003 164.083 126.009H149.112C148.668 125.984 148.254 125.778 147.965 125.439C147.942 125.411 147.907 125.4 147.886 125.37C147.863 125.325 147.843 125.279 147.825 125.231C147.725 125.056 147.664 124.861 147.645 124.66C147.633 124.611 147.623 124.562 147.615 124.511V114.032ZM147.615 130.499C147.623 130.449 147.633 130.4 147.645 130.351C147.664 130.15 147.725 129.955 147.825 129.78C147.843 129.732 147.863 129.686 147.886 129.641C147.911 129.605 147.949 129.587 147.977 129.554C148.106 129.408 148.258 129.285 148.427 129.189C148.512 129.146 148.6 129.112 148.691 129.087C148.787 129.057 148.887 129.037 148.987 129.028C149.03 129.024 149.068 129.002 149.112 129.002H164.083C164.127 129.002 164.165 129.024 164.208 129.028C164.6 129.067 164.961 129.255 165.218 129.554C165.246 129.587 165.284 129.605 165.31 129.641C165.332 129.686 165.353 129.733 165.37 129.78C165.47 129.955 165.531 130.15 165.55 130.351C165.563 130.4 165.573 130.449 165.58 130.5V140.979C165.573 141.029 165.563 141.079 165.55 141.128C165.531 141.329 165.47 141.523 165.37 141.699C165.352 141.746 165.332 141.792 165.31 141.837C165.288 141.868 165.253 141.878 165.23 141.907C164.954 142.261 164.532 142.47 164.083 142.476H149.112C148.668 142.451 148.254 142.245 147.966 141.907C147.943 141.879 147.907 141.868 147.886 141.837C147.863 141.792 147.843 141.746 147.826 141.699C147.726 141.523 147.664 141.329 147.646 141.128C147.633 141.079 147.623 141.029 147.615 140.979V130.499H147.615ZM183.545 148.464H149.112C148.286 148.464 147.615 147.794 147.615 146.967C147.615 146.14 148.285 145.47 149.112 145.47H183.545C184.372 145.47 185.042 146.14 185.042 146.967C185.042 147.794 184.372 148.464 183.545 148.464ZM183.545 137.985H170.071C169.245 137.985 168.574 137.315 168.574 136.488C168.574 135.661 169.245 134.991 170.071 134.991H183.545C184.372 134.991 185.042 135.661 185.042 136.488C185.042 137.315 184.372 137.985 183.545 137.985ZM168.574 130.499C168.574 129.673 169.245 129.002 170.071 129.002H177.557C178.384 129.002 179.054 129.672 179.054 130.499C179.054 131.326 178.384 131.997 177.557 131.997H170.071C169.245 131.997 168.574 131.326 168.574 130.499ZM183.545 121.517H170.071C169.245 121.517 168.574 120.847 168.574 120.02C168.574 119.193 169.245 118.523 170.071 118.523H183.545C184.372 118.523 185.042 119.193 185.042 120.02C185.042 120.847 184.372 121.517 183.545 121.517Z" fill="white"/>
<path d="M150.61 133.375V138.103L153.987 135.739L150.61 133.375Z" fill="white"/>
<path d="M159.335 131.997H153.861L156.598 133.911L159.335 131.997Z" fill="white"/>
<path d="M150.61 116.907V121.635L153.987 119.271L150.61 116.907Z" fill="white"/>
<path d="M153.861 123.014H159.335L156.598 121.099L153.861 123.014Z" fill="white"/>
<path d="M168.575 105.049H150.61V106.546H168.575V105.049Z" fill="white"/>
<path d="M159.335 115.529H153.861L156.598 117.443L159.335 115.529Z" fill="white"/>
<path d="M162.586 121.635V116.907L159.208 119.271L162.586 121.635Z" fill="white"/>
<path d="M153.861 139.482H159.335L156.598 137.567L153.861 139.482Z" fill="white"/>
<path d="M195.522 152.956H201.511V124.511H195.522V152.956ZM197.139 128.433C197.276 128.058 197.572 127.762 197.947 127.625C198.505 127.39 199.149 127.514 199.58 127.94C200.011 128.368 200.141 129.015 199.908 129.577C199.675 130.138 199.125 130.503 198.517 130.499C198.32 130.505 198.125 130.464 197.947 130.38C197.766 130.303 197.599 130.197 197.454 130.065C197.181 129.778 197.025 129.399 197.02 129.002C197.022 128.807 197.062 128.613 197.139 128.433ZM197.454 133.928C197.599 133.795 197.766 133.689 197.947 133.613C198.506 133.393 199.142 133.516 199.58 133.928C199.644 133.999 199.704 134.074 199.759 134.152C199.815 134.235 199.861 134.326 199.894 134.421C199.937 134.506 199.967 134.597 199.984 134.691C200 134.79 200.01 134.89 200.014 134.991C200.017 135.389 199.861 135.772 199.579 136.053C199.298 136.335 198.915 136.491 198.517 136.488C198.321 136.485 198.127 136.445 197.947 136.368C197.766 136.292 197.599 136.185 197.454 136.053C196.875 135.463 196.875 134.518 197.454 133.928ZM197.139 140.41C197.276 140.034 197.572 139.739 197.947 139.601C198.505 139.367 199.149 139.491 199.58 139.916C199.712 140.062 199.818 140.229 199.894 140.41C199.978 140.587 200.019 140.782 200.014 140.979C200.018 141.377 199.861 141.76 199.58 142.042C199.298 142.323 198.915 142.48 198.517 142.476C198.32 142.481 198.125 142.44 197.947 142.356C197.766 142.28 197.599 142.174 197.454 142.042C197.181 141.755 197.025 141.375 197.02 140.979C197.022 140.783 197.062 140.59 197.139 140.41ZM197.454 145.904C197.599 145.772 197.766 145.666 197.947 145.589C198.505 145.355 199.149 145.479 199.58 145.904C199.853 146.192 200.008 146.571 200.014 146.967C200.011 147.068 200.001 147.168 199.984 147.266C199.967 147.36 199.937 147.451 199.894 147.536C199.861 147.632 199.815 147.722 199.759 147.806C199.704 147.884 199.644 147.959 199.58 148.03C199.292 148.304 198.913 148.459 198.517 148.465C198.321 148.462 198.127 148.422 197.947 148.345C197.766 148.269 197.599 148.162 197.454 148.03C196.875 147.44 196.875 146.495 197.454 145.904Z" fill="white"/>
<path d="M206.002 111.038H189.534V152.956H192.528V115.529C192.528 114.702 193.198 114.032 194.025 114.032H203.008C203.834 114.032 204.505 114.702 204.505 115.529V154.453C204.505 155.279 203.835 155.95 203.008 155.95H128.153C127.327 155.95 126.656 155.28 126.656 154.453V115.529C126.656 114.702 127.326 114.032 128.153 114.032H137.136C137.963 114.032 138.633 114.702 138.633 115.529V152.956H141.627V111.038H125.159C124.333 111.039 123.663 111.708 123.662 112.535V158.944H207.499V112.535C207.498 111.708 206.828 111.039 206.002 111.038Z" fill="white"/>
<path d="M201.511 117.026H195.522V121.517H201.511V117.026Z" fill="white"/>
<path d="M123.663 169.424C123.664 170.25 124.333 170.92 125.16 170.921H155.791L152.516 182.897H149.113C148.286 182.897 147.616 183.568 147.616 184.395C147.616 185.221 148.286 185.892 149.113 185.892H182.049C182.875 185.892 183.546 185.222 183.546 184.395C183.546 183.568 182.876 182.897 182.049 182.897H178.645L175.371 170.921H206.002C206.828 170.92 207.498 170.25 207.499 169.424V161.938H123.663V169.424Z" fill="white"/>
<path d="M134.141 121.517H135.638V117.026H129.65V152.956H135.638V148.464H134.141C133.314 148.464 132.644 147.794 132.644 146.967C132.644 146.141 133.314 145.47 134.141 145.47H135.638V142.476H134.141C133.314 142.476 132.644 141.806 132.644 140.979C132.644 140.152 133.314 139.482 134.141 139.482H135.638V136.488H134.141C133.314 136.488 132.644 135.818 132.644 134.991C132.644 134.164 133.314 133.494 134.141 133.494H135.638V130.5H134.141C133.314 130.5 132.644 129.829 132.644 129.002C132.644 128.176 133.314 127.505 134.141 127.505H135.638V124.511H134.141C133.314 124.511 132.644 123.841 132.644 123.014C132.644 122.187 133.314 121.517 134.141 121.517Z" fill="white"/>
<g filter="url(#filter0_d_138_129)">
<circle cx="79.3451" cy="85.9261" r="27.1654" fill="white"/>
</g>
<defs>
<filter id="filter0_d_138_129" x="27.1797" y="39.7607" width="104.331" height="104.331" filterUnits="userSpaceOnUse" color-interpolation-filters="sRGB">
<feFlood flood-opacity="0" result="BackgroundImageFix"/>
<feColorMatrix in="SourceAlpha" type="matrix" values="0 0 0 0 0 0 0 0 0 0 0 0 0 0 0 0 0 0 127 0" result="hardAlpha"/>
<feOffset dy="6"/>
<feGaussianBlur stdDeviation="12.5"/>
<feColorMatrix type="matrix" values="0 0 0 0 0.0196078 0 0 0 0 0.545098 0 0 0 0 0.54902 0 0 0 0.4 0"/>
<feBlend mode="normal" in2="BackgroundImageFix" result="effect1_dropShadow_138_129"/>
<feBlend mode="normal" in="SourceGraphic" in2="effect1_dropShadow_138_129" result="shape"/>
</filter>
<linearGradient id="paint0_linear_138_129" x1="54.6346" y1="23.2366" x2="309.699" y2="23.2366" gradientUnits="userSpaceOnUse">
<stop/>
<stop offset="1" stop-color="#5E5E5E"/>
</linearGradient>
<linearGradient id="paint1_linear_138_129" x1="85.1336" y1="58.7603" x2="250.696" y2="58.7603" gradientUnits="userSpaceOnUse">
<stop stop-color="#058B8C"/>
<stop offset="1" stop-color="#058B8C"/>
</linearGradient>
</defs>
</svg>
