<svg width="362" height="301" viewBox="0 0 362 301" fill="none" xmlns="http://www.w3.org/2000/svg">
<path d="M150.426 300.851C67.3479 300.851 8.03115e-07 233.503 1.79381e-06 150.426C2.7845e-06 67.3478 67.3479 -3.13753e-05 150.426 -3.24333e-05L294 -3.42617e-05C331.555 -3.474e-05 362 30.4446 362 68L362 132.719C362 225.576 286.724 300.851 193.867 300.851L150.426 300.851Z" fill="white"/>
<circle r="132.693" transform="matrix(-1 0 0 1 180.693 152.693)" fill="url(#paint0_linear_138_130)"/>
<circle r="85.6755" transform="matrix(-1 0 0 1 196.365 141.199)" fill="url(#paint1_linear_138_130)"/>
<path d="M239.697 106.831H151.524C149.738 106.831 148.284 108.285 148.284 110.072V169.91C148.284 171.697 149.738 173.151 151.524 173.151H169.749L170.122 174.892C170.52 176.744 172.025 178.153 173.846 178.478C173.097 179.82 172.669 181.365 172.669 183.008C172.669 188.155 176.857 192.343 182.005 192.343C187.152 192.343 191.34 188.155 191.34 183.008C191.34 181.394 190.928 179.875 190.204 178.549H197.957C197.234 179.875 196.822 181.394 196.822 183.008C196.822 188.155 201.01 192.343 206.157 192.343C211.305 192.343 215.493 188.155 215.493 183.008C215.493 181.383 215.075 179.855 214.342 178.523C216.31 178.32 217.979 176.857 218.401 174.891L228.488 127.942H240.16V169.91C240.16 170.166 239.952 170.373 239.697 170.373H224.563C223.796 170.373 223.174 170.995 223.174 171.762C223.174 172.53 223.796 173.151 224.563 173.151H239.697C241.484 173.151 242.937 171.697 242.937 169.91V110.072C242.938 108.285 241.484 106.831 239.697 106.831ZM182.005 189.565C178.389 189.565 175.447 186.623 175.447 183.007C175.447 179.392 178.388 176.45 182.005 176.45C185.621 176.45 188.562 179.392 188.562 183.007C188.562 186.624 185.62 189.565 182.005 189.565ZM206.157 189.565C202.541 189.565 199.6 186.623 199.6 183.007C199.6 179.392 202.541 176.45 206.157 176.45C209.773 176.45 212.715 179.392 212.715 183.007C212.715 186.624 209.773 189.565 206.157 189.565ZM236.21 125.165C237.141 124.317 237.726 123.096 237.726 121.741C237.726 119.188 235.65 117.111 233.097 117.111H228.728C224.45 117.111 220.693 120.146 219.794 124.329L219.615 125.164H206.499C205.732 125.164 205.11 125.786 205.11 126.553C205.11 127.32 205.732 127.942 206.499 127.942H219.018L217.608 134.503H167.175C165.769 134.503 164.457 135.131 163.573 136.224C162.69 137.317 162.353 138.732 162.648 140.106L166.073 156.045C166.234 156.795 166.972 157.271 167.722 157.111C168.472 156.95 168.95 156.211 168.789 155.462L165.364 139.523C165.246 138.973 165.381 138.407 165.734 137.969C166.088 137.532 166.613 137.282 167.175 137.282H218.731C219.385 137.282 219.951 136.824 220.089 136.184L222.51 124.912C223.136 122.001 225.751 119.889 228.728 119.889H233.097C234.118 119.889 234.949 120.72 234.949 121.741C234.949 122.762 234.118 123.593 233.097 123.593H228.728C227.485 123.593 226.393 124.475 226.131 125.69L215.685 174.308C215.503 175.156 214.742 175.771 213.875 175.771H212.047C210.439 174.46 208.389 173.672 206.158 173.672C203.926 173.672 201.876 174.46 200.268 175.771H187.895C186.287 174.46 184.236 173.672 182.005 173.672C179.773 173.672 177.723 174.46 176.115 175.771H174.649C173.782 175.771 173.021 175.156 172.839 174.308L169.988 161.042C169.827 160.292 169.089 159.816 168.338 159.976C167.588 160.137 167.111 160.875 167.272 161.625L169.152 170.374H151.524C151.269 170.374 151.062 170.166 151.062 169.911V127.942H200.075C200.842 127.942 201.464 127.321 201.464 126.553C201.464 125.786 200.842 125.165 200.075 125.165H151.062V110.072C151.062 109.816 151.269 109.609 151.524 109.609H239.697C239.952 109.609 240.16 109.816 240.16 110.072V125.165H236.21Z" fill="white"/>
<path d="M158.551 120.043C160.046 120.043 161.259 118.831 161.259 117.335C161.259 115.839 160.046 114.626 158.551 114.626C157.055 114.626 155.842 115.839 155.842 117.335C155.842 118.831 157.055 120.043 158.551 120.043Z" fill="white"/>
<path d="M166.786 120.043C168.282 120.043 169.495 118.831 169.495 117.335C169.495 115.839 168.282 114.626 166.786 114.626C165.291 114.626 164.078 115.839 164.078 117.335C164.078 118.831 165.291 120.043 166.786 120.043Z" fill="white"/>
<path d="M175.022 120.043C176.518 120.043 177.731 118.831 177.731 117.335C177.731 115.839 176.518 114.626 175.022 114.626C173.527 114.626 172.314 115.839 172.314 117.335C172.314 118.831 173.527 120.043 175.022 120.043Z" fill="white"/>
<path d="M198.165 164.176H189.997C189.609 164.176 189.238 164.338 188.975 164.624C188.712 164.909 188.581 165.292 188.613 165.679L189.034 170.792C189.093 171.513 189.695 172.067 190.418 172.067H197.745C198.467 172.067 199.069 171.513 199.129 170.792L199.55 165.679C199.581 165.292 199.45 164.909 199.187 164.624C198.924 164.338 198.554 164.176 198.165 164.176ZM196.465 169.289H191.697L191.505 166.954H196.658L196.465 169.289Z" fill="white"/>
<path d="M170.927 147.78C171.064 148.42 171.63 148.877 172.285 148.877H182.005C182.794 148.894 183.471 148.159 183.389 147.374L182.968 142.26C182.909 141.54 182.307 140.985 181.584 140.985H171.186C170.328 140.964 169.627 141.831 169.828 142.666L170.927 147.78ZM180.305 143.763L180.497 146.099H173.407L172.905 143.763H180.305Z" fill="white"/>
<path d="M176.169 164.176C175.749 164.176 175.352 164.365 175.088 164.692C174.825 165.018 174.723 165.446 174.811 165.856L175.909 170.97C176.047 171.61 176.613 172.067 177.267 172.067H183.914C184.302 172.067 184.673 171.905 184.936 171.619C185.199 171.334 185.33 170.951 185.298 170.565L184.877 165.451C184.818 164.73 184.216 164.176 183.493 164.176H176.169ZM178.39 169.289L177.888 166.954H182.214L182.406 169.289H178.39Z" fill="white"/>
<path d="M173.677 152.58C173.257 152.58 172.86 152.77 172.597 153.096C172.333 153.423 172.231 153.851 172.319 154.261L173.418 159.375C173.555 160.015 174.121 160.472 174.776 160.472H182.959C183.347 160.472 183.718 160.31 183.981 160.024C184.244 159.739 184.375 159.356 184.343 158.969L183.922 153.855C183.863 153.135 183.261 152.58 182.538 152.58H173.677ZM175.898 157.694L175.396 155.358H181.259L181.451 157.694H175.898Z" fill="white"/>
<path d="M187.124 147.602C187.184 148.322 187.786 148.877 188.509 148.877H199.654C200.377 148.877 200.979 148.322 201.038 147.602L201.459 142.488C201.54 141.703 200.864 140.968 200.075 140.985H188.087C187.299 140.968 186.621 141.703 186.703 142.488L187.124 147.602ZM198.567 143.763L198.375 146.099H189.788L189.595 143.763H198.567Z" fill="white"/>
<path d="M205.203 160.472H213.748C214.403 160.472 214.969 160.015 215.106 159.375L216.205 154.261C216.293 153.851 216.191 153.423 215.927 153.096C215.664 152.77 215.267 152.58 214.847 152.58H205.624C204.901 152.58 204.299 153.135 204.24 153.855L203.819 158.969C203.787 159.356 203.919 159.739 204.182 160.024C204.444 160.31 204.815 160.472 205.203 160.472ZM206.903 155.358H213.128L212.626 157.694H206.711L206.903 155.358Z" fill="white"/>
<path d="M206.158 148.877H216.24C216.894 148.877 217.46 148.42 217.598 147.78L218.697 142.666C218.898 141.831 218.197 140.964 217.338 140.985H206.579C205.856 140.985 205.254 141.54 205.195 142.26L204.774 147.374C204.692 148.159 205.369 148.894 206.158 148.877ZM207.858 143.763H215.619L215.117 146.099H207.666L207.858 143.763Z" fill="white"/>
<path d="M199.12 152.58H189.042C188.654 152.58 188.283 152.743 188.021 153.028C187.758 153.314 187.626 153.696 187.658 154.083L188.079 159.197C188.138 159.917 188.74 160.472 189.463 160.472H198.699C199.422 160.472 200.024 159.918 200.083 159.197L200.504 154.083C200.536 153.696 200.405 153.314 200.142 153.028C199.879 152.743 199.508 152.58 199.12 152.58ZM197.42 157.694H190.742L190.55 155.358H197.612L197.42 157.694Z" fill="white"/>
<path d="M204.248 172.067H211.256C211.911 172.067 212.476 171.61 212.614 170.97L213.713 165.856C213.801 165.446 213.699 165.018 213.435 164.692C213.172 164.365 212.774 164.176 212.355 164.176H204.669C203.946 164.176 203.344 164.73 203.285 165.451L202.864 170.565C202.832 170.951 202.963 171.334 203.226 171.619C203.489 171.905 203.859 172.067 204.248 172.067ZM205.948 166.954H210.636L210.134 169.29H205.755L205.948 166.954Z" fill="white"/>
<path d="M182.004 180.624C180.687 180.624 179.62 181.691 179.62 183.008C179.62 184.325 180.687 185.392 182.004 185.392C183.321 185.392 184.388 184.325 184.388 183.008C184.388 181.691 183.321 180.624 182.004 180.624Z" fill="white"/>
<path d="M206.157 180.624C204.841 180.624 203.773 181.691 203.773 183.008C203.773 184.325 204.841 185.392 206.157 185.392C207.474 185.392 208.541 184.325 208.541 183.008C208.541 181.691 207.474 180.624 206.157 180.624Z" fill="white"/>
<g filter="url(#filter0_d_138_130)">
<circle cx="270.841" cy="82.6893" r="27.1654" fill="white"/>
</g>
<defs>
<filter id="filter0_d_138_130" x="218.676" y="36.5239" width="104.331" height="104.331" filterUnits="userSpaceOnUse" color-interpolation-filters="sRGB">
<feFlood flood-opacity="0" result="BackgroundImageFix"/>
<feColorMatrix in="SourceAlpha" type="matrix" values="0 0 0 0 0 0 0 0 0 0 0 0 0 0 0 0 0 0 127 0" result="hardAlpha"/>
<feOffset dy="6"/>
<feGaussianBlur stdDeviation="12.5"/>
<feColorMatrix type="matrix" values="0 0 0 0 0.0196078 0 0 0 0 0.545098 0 0 0 0 0.54902 0 0 0 0.4 0"/>
<feBlend mode="normal" in2="BackgroundImageFix" result="effect1_dropShadow_138_130"/>
<feBlend mode="normal" in="SourceGraphic" in2="effect1_dropShadow_138_130" result="shape"/>
</filter>
<linearGradient id="paint0_linear_138_130" x1="6.63463" y1="0" x2="261.699" y2="0" gradientUnits="userSpaceOnUse">
<stop/>
<stop offset="1" stop-color="#5E5E5E"/>
</linearGradient>
<linearGradient id="paint1_linear_138_130" x1="5.78889" y1="0" x2="171.351" y2="0" gradientUnits="userSpaceOnUse">
<stop stop-color="#058B8C"/>
<stop offset="1" stop-color="#058B8C"/>
</linearGradient>
</defs>
</svg>
