<svg width="14" height="14" viewBox="0 0 14 14" fill="none" xmlns="http://www.w3.org/2000/svg">
<path d="M13.603 14.0002V13.9996H13.6063V9.07063C13.6063 6.65934 13.0872 4.80188 10.2683 4.80188C8.91309 4.80188 8.00368 5.54554 7.63241 6.25056H7.59321V5.02699H4.92041V13.9996H7.70353V9.5567C7.70353 8.38689 7.92528 7.25573 9.37396 7.25573C10.8014 7.25573 10.8226 8.59073 10.8226 9.63173V14.0002H13.603Z" fill="white"/>
<path d="M0.388672 5.02734H3.17515V13.9999H0.388672V5.02734Z" fill="white"/>
<path d="M1.78086 0.559814C0.88993 0.559814 0.166992 1.28275 0.166992 2.17368C0.166992 3.06462 0.88993 3.80267 1.78086 3.80267C2.67179 3.80267 3.39473 3.06462 3.39473 2.17368C3.39417 1.28275 2.67123 0.559814 1.78086 0.559814V0.559814Z" fill="white"/>
</svg>
