<?xml version="1.0" encoding="utf-8"?>
<!-- Generator: Adobe Illustrator 26.0.1, SVG Export Plug-In . SVG Version: 6.00 Build 0)  -->
<svg version="1.1" id="Layer_1" xmlns="http://www.w3.org/2000/svg" xmlns:xlink="http://www.w3.org/1999/xlink" x="0px" y="0px"
	 viewBox="0 0 2000 2000" style="enable-background:new 0 0 2000 2000;" xml:space="preserve">
<style type="text/css">
	.st0{fill:#058B8C;}
	.st1{fill:#036863;}
</style>
<g>
	<g>
		<polygon className="st0" points="950.62,812.32 950.62,934.65 851.22,1099.48 804.37,1099.48 803.92,1100.16 803.48,1099.48 
			756.39,1099.48 638.11,903.32 638.11,1115.56 574.96,1115.56 574.96,772.78 633.2,772.78 803.92,1055.97 		"/>
		<path className="st1" d="M1179.48,912.92v63.38h178.54v75.87h-278.06v63.38h342.33V912.92H1179.48z M969.49,917.15v59.15h0.02v-60.42
			C969.49,916.31,969.49,916.72,969.49,917.15z"/>
		<path className="st1" d="M1409.35,835.93h-295.69c-7.58,0-14.59,0.81-20.98,2.45c-6.39,1.65-12.8,4.33-19.2,8.05
			c-6.39,3.57-11.98,7.62-16.74,12.16c-4.76,4.54-9.07,9.93-12.94,16.17c-3.87,6.25-6.69,12.54-8.48,18.85
			c-1.78,6.33-2.68,13.43-2.68,21.31v0.96h0.02v199.67h-63.16V915.88c0.1-12.04,1.65-23.91,4.68-35.54
			c3.12-12.06,7.65-23.51,13.61-34.37c6.1-10.72,13.42-20.54,21.97-29.46c8.56-8.94,18.11-16.74,28.68-23.43
			c10.71-6.71,22.32-11.76,34.81-15.18c12.49-3.42,25.51-5.14,39.06-5.14h259.31l3.35,5.58l24.09,40.4L1409.35,835.93z"/>
	</g>
	<g>
		<path className="st1" d="M640.37,1175.32l-22.63,30.17h-2.58l-22.13-30.27v50.52h-13.1v-69.48h15.09l21.74,29.88l21.74-29.88h14.99
			v69.48h-13.1V1175.32z"/>
		<path className="st1" d="M721.07,1212.54h-36.33l-5.96,13.1h-14.19l31.17-69.48h14.29l31.17,69.48h-14.29L721.07,1212.54z
			 M702.91,1170.76l-12.9,29.58h25.81L702.91,1170.76z"/>
		<path className="st1" d="M814.67,1225.64h-15.58l-20.25-23.22h-12.6v23.22h-13.1v-69.58c11.02,0,22.03,0.1,33.05,0.1
			c16.38,0.1,25.01,11.02,25.01,23.03c0,9.53-4.37,19.16-17.57,21.84l21.04,23.72V1225.64z M766.24,1168.37v22.23h19.95
			c8.34,0,11.91-5.56,11.91-11.12c0-5.56-3.67-11.12-11.91-11.12H766.24z"/>
		<path className="st1" d="M887.23,1216.91c-7.15,7.05-16.38,10.32-26.4,10.32c-25.81,0-36.72-17.77-36.82-35.83
			c-0.1-18.16,11.71-36.62,36.82-36.62c9.43,0,18.36,3.57,25.51,10.62l-8.74,8.44c-4.56-4.47-10.72-6.55-16.77-6.55
			c-16.77,0-24.02,12.51-23.92,24.12c0.1,11.51,6.75,23.52,23.92,23.52c6.06,0,12.9-2.48,17.47-7.05L887.23,1216.91z"/>
		<path className="st1" d="M952.35,1225.64h-52.01c0-23.13,0-46.35,0-69.48h52.01v12.7h-39.01v15.98h37.62v12.21h-37.62v15.68h39.01
			V1225.64z"/>
		<path className="st1" d="M981.54,1156.17v57.37h35.73v12.11h-48.83v-69.48H981.54z"/>
		<path className="st0" d="M1110.08,1173.14c-4.66-4.47-11.61-6.95-17.67-6.95c-14.89,0-23.92,11.32-23.92,25.61
			c0,11.41,6.65,23.23,23.92,23.23c5.46,0,10.22-1.19,15.68-5.56v-12.31h-17.77v-11.71h29.78v29.28
			c-6.85,7.84-15.48,12.51-27.69,12.51c-26.1,0-36.72-17.17-36.72-35.43c0-19.55,12.21-37.62,36.72-37.62
			c9.33,0,18.66,3.57,25.81,10.62L1110.08,1173.14z"/>
		<path className="st0" d="M1205.07,1191.3c-0.2,17.97-11.22,35.93-35.63,35.93s-35.73-17.57-35.73-35.83
			c0-18.26,11.71-36.62,35.73-36.62C1193.36,1154.78,1205.27,1173.14,1205.07,1191.3z M1146.61,1191.6
			c0.3,11.41,6.45,23.62,22.83,23.62s22.53-12.31,22.73-23.72c0.2-11.71-6.35-24.81-22.73-24.81S1146.32,1179.89,1146.61,1191.6z"/>
		<path className="st0" d="M1233.76,1156.17v57.37h35.73v12.11h-48.83v-69.48H1233.76z"/>
		<path className="st0" d="M1350.89,1191.3c-0.2,17.97-11.22,35.93-35.63,35.93s-35.73-17.57-35.73-35.83
			c0-18.26,11.71-36.62,35.73-36.62C1339.18,1154.78,1351.09,1173.14,1350.89,1191.3z M1292.43,1191.6
			c0.3,11.41,6.45,23.62,22.83,23.62s22.53-12.31,22.73-23.72c0.2-11.71-6.35-24.81-22.73-24.81S1292.13,1179.89,1292.43,1191.6z"/>
		<path className="st0" d="M1422.96,1176.31c0,5.36-2.58,10.52-9.03,13.4c8.14,2.48,11.12,11.12,11.12,15.48
			c0,15.48-11.61,20.45-26,20.45c-11.02,0-21.94,0-32.95,0v-69.48c10.92,0,21.94,0,32.95,0
			C1412.73,1156.17,1422.96,1162.32,1422.96,1176.31z M1378.99,1184.06h20.05c8.24,0,10.92-3.47,10.92-7.44
			c0-3.18-2.58-8.54-10.92-8.54h-20.05V1184.06z M1378.99,1213.44h20.05c5.36,0,13-1.79,13-8.34c0-6.25-7.64-9.53-13-9.53h-20.05
			V1213.44z"/>
	</g>
</g>
</svg>
