<svg width="362" height="301" viewBox="0 0 362 301" fill="none" xmlns="http://www.w3.org/2000/svg">
<path d="M150.426 -4.97715e-06C67.3479 -2.22835e-06 3.88915e-06 67.3478 8.68666e-06 150.426V150.426C1.34842e-05 233.504 67.3479 300.851 150.426 300.851L294 300.851C331.555 300.851 362 270.407 362 232.851L362 168.133C362 75.2754 286.724 -9.48688e-06 193.867 -6.4145e-06L150.426 -4.97715e-06Z" fill="white"/>
<circle cx="180.693" cy="155.929" r="132.693" fill="url(#paint0_linear_138_131)"/>
<circle cx="165.02" cy="144.436" r="85.6755" fill="url(#paint1_linear_138_131)"/>
<g clip-path="url(#clip0_138_131)">
<path d="M178.981 103.953H149.385C145.672 103.957 142.663 106.966 142.658 110.679V177.943C142.663 181.655 145.672 184.664 149.385 184.669H178.981C182.693 184.664 185.702 181.655 185.707 177.943V110.679C185.702 106.966 182.693 103.957 178.981 103.953ZM158.836 181.978H149.385C147.156 181.978 145.349 180.171 145.349 177.943V173.907H158.836C156.997 176.283 156.997 179.602 158.836 181.978ZM164.183 181.978C161.954 181.978 160.147 180.171 160.147 177.943C160.147 175.714 161.954 173.907 164.183 173.907C166.411 173.907 168.218 175.714 168.218 177.943C168.218 180.171 166.411 181.978 164.183 181.978ZM183.016 177.943C183.016 180.171 181.209 181.978 178.981 181.978H169.529C171.368 179.602 171.368 176.283 169.529 173.907H183.016V177.943ZM183.016 171.216H145.349V118.751H183.016V171.216ZM183.016 116.06H145.349V110.679C145.349 108.45 147.156 106.643 149.385 106.643H178.981C181.209 106.643 183.016 108.45 183.016 110.679V116.06Z" fill="white"/>
<path d="M168.218 110.679H154.766V113.369H168.218V110.679Z" fill="white"/>
<path d="M158.801 130.858H153.42C151.191 130.858 149.384 132.665 149.384 134.894V140.275C149.384 142.504 151.191 144.311 153.42 144.311H158.801C161.03 144.311 162.837 142.504 162.837 140.275V134.894C162.837 132.665 161.03 130.858 158.801 130.858ZM160.146 140.275C160.146 141.018 159.544 141.62 158.801 141.62H153.42C152.677 141.62 152.075 141.018 152.075 140.275V134.894C152.075 134.151 152.677 133.548 153.42 133.548H158.801C159.544 133.548 160.146 134.151 160.146 134.894V140.275Z" fill="white"/>
<path d="M174.945 130.858H169.564C167.335 130.858 165.528 132.665 165.528 134.894V140.275C165.528 142.504 167.335 144.311 169.564 144.311H174.945C177.174 144.311 178.981 142.504 178.981 140.275V134.894C178.981 132.665 177.174 130.858 174.945 130.858ZM176.29 140.275C176.29 141.018 175.688 141.62 174.945 141.62H169.564C168.821 141.62 168.218 141.018 168.218 140.275V134.894C168.218 134.151 168.821 133.548 169.564 133.548H174.945C175.688 133.548 176.29 134.151 176.29 134.894V140.275Z" fill="white"/>
<path d="M158.801 147.001H153.42C151.191 147.001 149.384 148.808 149.384 151.037V156.418C149.384 158.647 151.191 160.454 153.42 160.454H158.801C161.03 160.454 162.837 158.647 162.837 156.418V151.037C162.837 148.808 161.03 147.001 158.801 147.001ZM160.146 156.418C160.146 157.161 159.544 157.763 158.801 157.763H153.42C152.677 157.763 152.075 157.161 152.075 156.418V151.037C152.075 150.294 152.677 149.692 153.42 149.692H158.801C159.544 149.692 160.146 150.294 160.146 151.037V156.418Z" fill="white"/>
<path d="M174.945 147.001H169.564C167.335 147.001 165.528 148.808 165.528 151.037V156.418C165.528 158.647 167.335 160.454 169.564 160.454H174.945C177.174 160.454 178.981 158.647 178.981 156.418V151.037C178.981 148.808 177.174 147.001 174.945 147.001ZM176.29 156.418C176.29 157.161 175.688 157.763 174.945 157.763H169.564C168.821 157.763 168.218 157.161 168.218 156.418V151.037C168.218 150.294 168.821 149.692 169.564 149.692H174.945C175.688 149.692 176.29 150.294 176.29 151.037V156.418Z" fill="white"/>
<path d="M153.42 121.441H149.384C148.641 121.441 148.039 122.044 148.039 122.786V126.822C148.039 127.565 148.641 128.168 149.384 128.168C150.127 128.168 150.73 127.565 150.73 126.822V124.132H153.42C154.163 124.132 154.765 123.529 154.765 122.786C154.765 122.044 154.163 121.441 153.42 121.441Z" fill="white"/>
<path d="M161.492 121.441H158.801C158.058 121.441 157.456 122.044 157.456 122.786C157.456 123.529 158.058 124.132 158.801 124.132H161.492C162.235 124.132 162.837 123.529 162.837 122.786C162.837 122.044 162.235 121.441 161.492 121.441Z" fill="white"/>
<path d="M173.599 110.679H170.909V113.369H173.599V110.679Z" fill="white"/>
</g>
<g filter="url(#filter0_d_138_131)">
<circle cx="79.3451" cy="85.9257" r="27.1654" fill="white"/>
</g>
<defs>
<filter id="filter0_d_138_131" x="27.1797" y="39.7603" width="104.331" height="104.331" filterUnits="userSpaceOnUse" color-interpolation-filters="sRGB">
<feFlood flood-opacity="0" result="BackgroundImageFix"/>
<feColorMatrix in="SourceAlpha" type="matrix" values="0 0 0 0 0 0 0 0 0 0 0 0 0 0 0 0 0 0 127 0" result="hardAlpha"/>
<feOffset dy="6"/>
<feGaussianBlur stdDeviation="12.5"/>
<feColorMatrix type="matrix" values="0 0 0 0 0.0196078 0 0 0 0 0.545098 0 0 0 0 0.54902 0 0 0 0.4 0"/>
<feBlend mode="normal" in2="BackgroundImageFix" result="effect1_dropShadow_138_131"/>
<feBlend mode="normal" in="SourceGraphic" in2="effect1_dropShadow_138_131" result="shape"/>
</filter>
<linearGradient id="paint0_linear_138_131" x1="54.6346" y1="23.2366" x2="309.699" y2="23.2366" gradientUnits="userSpaceOnUse">
<stop/>
<stop offset="1" stop-color="#5E5E5E"/>
</linearGradient>
<linearGradient id="paint1_linear_138_131" x1="85.1336" y1="58.7603" x2="250.696" y2="58.7603" gradientUnits="userSpaceOnUse">
<stop stop-color="#058B8C"/>
<stop offset="1" stop-color="#058B8C"/>
</linearGradient>
<clipPath id="clip0_138_131">
<rect width="80.7162" height="80.7162" fill="white" transform="translate(123.824 103.953)"/>
</clipPath>
</defs>
</svg>
