<svg width="15" height="12" viewBox="0 0 15 12" fill="none" xmlns="http://www.w3.org/2000/svg">
<path d="M14.1671 1.97253C13.6673 2.19176 13.1348 2.33708 12.5796 2.40764C13.1508 2.06661 13.5867 1.5307 13.7917 0.884763C13.2591 1.20227 12.6711 1.42655 12.0445 1.5517C11.5388 1.01328 10.8181 0.67981 10.0319 0.67981C8.50654 0.67981 7.27849 1.91793 7.27849 3.43576C7.27849 3.65416 7.29697 3.86415 7.34233 4.06406C5.05172 3.95235 3.02487 2.8545 1.66327 1.18211C1.42556 1.59454 1.28612 2.06661 1.28612 2.57479C1.28612 3.529 1.77751 4.37485 2.50996 4.86456C2.0673 4.85616 1.63303 4.72764 1.26512 4.52521C1.26512 4.53361 1.26512 4.54453 1.26512 4.55545C1.26512 5.89437 2.22017 7.00649 3.47257 7.26268C3.2483 7.324 3.00387 7.3534 2.7502 7.3534C2.5738 7.3534 2.39573 7.34332 2.22857 7.30636C2.58556 8.39749 3.59857 9.19966 4.80309 9.2257C3.86568 9.959 2.67544 10.4008 1.38692 10.4008C1.16097 10.4008 0.944252 10.3907 0.727539 10.363C1.94802 11.1501 3.39446 11.5995 4.95429 11.5995C10.0244 11.5995 12.7963 7.3996 12.7963 3.75915C12.7963 3.63736 12.7921 3.51976 12.7862 3.403C13.333 3.01494 13.7925 2.53027 14.1671 1.97253Z" fill="white"/>
</svg>
